<svg width="20" height="20" viewBox="0 0 20 20" fill="none" xmlns="http://www.w3.org/2000/svg">
<path d="M12.4959 17.4143C12.1019 16.3183 10.6909 12.6393 10.1059 11.1173C9.00295 11.8543 7.77195 12.5523 6.59395 13.0453C6.22795 14.3253 5.49995 16.7543 5.14795 17.0783C4.54395 17.6353 4.31595 17.5633 4.22295 16.7993C4.12995 16.0353 3.73795 13.5633 3.73795 13.5633C3.73795 13.5633 1.57595 12.3443 0.89795 11.9953C0.21995 11.6463 0.23095 11.4043 0.95495 11.0213C1.37695 10.7983 3.88195 10.9363 5.19695 11.0263C6.05795 10.0753 7.12795 9.14432 8.18995 8.34732C6.97495 7.27132 4.03995 4.67232 3.15595 3.92332C2.37995 3.26532 3.23495 3.12632 3.23495 3.12632C3.62495 3.05632 4.45695 2.99432 4.86295 3.11732C7.38695 3.88032 11.3049 5.18532 12.2259 5.49332L13.3879 4.67232C18.0899 1.34232 19.275 2.07932 19.499 2.40232C19.723 2.72532 20.0019 4.10332 15.2999 7.43432L14.1399 8.25732C14.1109 9.23732 13.983 13.4083 13.8289 16.0683C13.804 16.4963 13.4619 17.2663 13.2639 17.6123C13.2629 17.6123 12.841 18.3773 12.4959 17.4143Z" fill="#FDC913"/>
</svg>
