<svg width="20" height="20" viewBox="0 0 20 20" fill="none" xmlns="http://www.w3.org/2000/svg">
<path d="M2.5 3C1.47187 3 0.625 3.84688 0.625 4.875V9.1125C0.24375 9.4575 0 9.95125 0 10.5V16.125H3.125V14.875H14.375V16.125H17.5V10.5C17.5 9.95125 17.2563 9.4575 16.875 9.1125V4.875C16.875 3.84688 16.0281 3 15 3H2.5ZM2.5 4.25H15C15.3469 4.25 15.625 4.52813 15.625 4.875V8.625H14.375V8C14.375 6.97187 13.5281 6.125 12.5 6.125H10C9.52063 6.125 9.08313 6.3125 8.75 6.6125C8.40821 6.30061 7.9627 6.12687 7.5 6.125H5C3.97187 6.125 3.125 6.97187 3.125 8V8.625H1.875V4.875C1.875 4.52813 2.15313 4.25 2.5 4.25ZM5 7.375H7.5C7.84688 7.375 8.125 7.65312 8.125 8V8.625H4.375V8C4.375 7.65312 4.65312 7.375 5 7.375ZM10 7.375H12.5C12.8469 7.375 13.125 7.65312 13.125 8V8.625H9.375V8C9.375 7.65312 9.65312 7.375 10 7.375ZM1.875 9.875H15.625C15.9719 9.875 16.25 10.1531 16.25 10.5V14.875H15.625V13.625H1.875V14.875H1.25V10.5C1.25 10.1531 1.52813 9.875 1.875 9.875Z" fill="#FDC913"/>
</svg>
