<svg width="20" height="21" viewBox="0 0 20 21" fill="none" xmlns="http://www.w3.org/2000/svg">
<path d="M15.8337 3.38853H14.167V2.54143C14.167 2.31677 14.0792 2.10131 13.9229 1.94244C13.7666 1.78358 13.5547 1.69434 13.3337 1.69434C13.1126 1.69434 12.9007 1.78358 12.7444 1.94244C12.5881 2.10131 12.5003 2.31677 12.5003 2.54143V3.38853H7.50033V2.54143C7.50033 2.31677 7.41253 2.10131 7.25625 1.94244C7.09997 1.78358 6.88801 1.69434 6.66699 1.69434C6.44598 1.69434 6.23402 1.78358 6.07774 1.94244C5.92146 2.10131 5.83366 2.31677 5.83366 2.54143V3.38853H4.16699C3.50395 3.38853 2.86807 3.65627 2.39923 4.13286C1.93038 4.60944 1.66699 5.25583 1.66699 5.92982V16.095C1.66699 16.769 1.93038 17.4154 2.39923 17.8919C2.86807 18.3685 3.50395 18.6363 4.16699 18.6363H15.8337C16.4967 18.6363 17.1326 18.3685 17.6014 17.8919C18.0703 17.4154 18.3337 16.769 18.3337 16.095V5.92982C18.3337 5.25583 18.0703 4.60944 17.6014 4.13286C17.1326 3.65627 16.4967 3.38853 15.8337 3.38853ZM16.667 16.095C16.667 16.3196 16.5792 16.5351 16.4229 16.694C16.2666 16.8528 16.0547 16.9421 15.8337 16.9421H4.16699C3.94598 16.9421 3.73402 16.8528 3.57774 16.694C3.42146 16.5351 3.33366 16.3196 3.33366 16.095V10.1653H16.667V16.095ZM16.667 8.47111H3.33366V5.92982C3.33366 5.70515 3.42146 5.48969 3.57774 5.33083C3.73402 5.17197 3.94598 5.08272 4.16699 5.08272H5.83366V5.92982C5.83366 6.15448 5.92146 6.36995 6.07774 6.52881C6.23402 6.68767 6.44598 6.77692 6.66699 6.77692C6.88801 6.77692 7.09997 6.68767 7.25625 6.52881C7.41253 6.36995 7.50033 6.15448 7.50033 5.92982V5.08272H12.5003V5.92982C12.5003 6.15448 12.5881 6.36995 12.7444 6.52881C12.9007 6.68767 13.1126 6.77692 13.3337 6.77692C13.5547 6.77692 13.7666 6.68767 13.9229 6.52881C14.0792 6.36995 14.167 6.15448 14.167 5.92982V5.08272H15.8337C16.0547 5.08272 16.2666 5.17197 16.4229 5.33083C16.5792 5.48969 16.667 5.70515 16.667 5.92982V8.47111Z" fill="#FDC913"/>
</svg>
