<svg width="18" height="18" viewBox="0 0 18 18" fill="none" xmlns="http://www.w3.org/2000/svg">
<path d="M8.15649 2.68652H2.59033C2.16855 2.68652 1.76404 2.85408 1.4658 3.15232C1.16755 3.45057 1 3.85507 1 4.27685V15.4092C1 15.831 1.16755 16.2355 1.4658 16.5337C1.76404 16.832 2.16855 16.9995 2.59033 16.9995H13.7226C14.1444 16.9995 14.5489 16.832 14.8472 16.5337C15.1454 16.2355 15.313 15.831 15.313 15.4092V9.84301" stroke="#ACACAC" stroke-linecap="round" stroke-linejoin="round"/>
<path d="M14.1202 1.49405C14.4366 1.17772 14.8656 1 15.313 1C15.7603 1 16.1894 1.17772 16.5057 1.49405C16.8221 1.81039 16.9998 2.23943 16.9998 2.6868C16.9998 3.13417 16.8221 3.56321 16.5057 3.87955L8.95166 11.4336L5.771 12.2288L6.56616 9.04813L14.1202 1.49405Z" stroke="#ACACAC" stroke-width="2" stroke-linecap="round" stroke-linejoin="round"/>
</svg>
