<svg width="19" height="19" viewBox="0 0 19 19" fill="none" xmlns="http://www.w3.org/2000/svg">
<path d="M9.63289 0.000882687C4.2903 -0.0712774 -0.0712774 4.2903 0.000882687 9.63289C0.0721294 14.7567 4.24417 18.9288 9.368 19C14.7115 19.0731 19.0722 14.7115 18.9991 9.36891C18.9288 4.24417 14.7567 0.0721294 9.63289 0.000882687ZM15.4066 14.9467C15.3884 14.9664 15.3661 14.9818 15.3413 14.9919C15.3165 15.002 15.2897 15.0065 15.263 15.0051C15.2362 15.0037 15.2101 14.9965 15.1865 14.9838C15.1628 14.9712 15.1422 14.9536 15.1262 14.9321C14.7177 14.3976 14.2174 13.94 13.6487 13.5807C12.486 12.8344 11.0126 12.4234 9.50045 12.4234C7.98828 12.4234 6.51493 12.8344 5.35215 13.5807C4.78349 13.9399 4.28322 14.3973 3.87469 14.9316C3.85865 14.9531 3.83807 14.9708 3.81443 14.9834C3.79079 14.996 3.76467 15.0033 3.73791 15.0047C3.71115 15.0061 3.68441 15.0015 3.65959 14.9914C3.63477 14.9814 3.61247 14.9659 3.59427 14.9463C2.25414 13.4996 1.49501 11.6092 1.46235 9.63746C1.38791 5.19322 5.03474 1.47331 9.48081 1.46235C13.9269 1.45139 17.5385 5.06168 17.5385 9.50045C17.5401 11.5197 16.7786 13.4651 15.4066 14.9467Z" fill="#FDC913"/>
<path d="M9.50013 4.38574C8.5995 4.38574 7.78519 4.72325 7.20654 5.33661C6.62788 5.94997 6.33879 6.79808 6.4041 7.7083C6.53654 9.50089 7.9254 10.9624 9.50013 10.9624C11.0749 10.9624 12.461 9.50089 12.5962 7.70876C12.6638 6.80722 12.3769 5.96687 11.7887 5.34209C11.2078 4.72553 10.3948 4.38574 9.50013 4.38574Z" fill="#FDC913"/>
</svg>
