<svg width="18" height="18" viewBox="0 0 18 18" fill="none" xmlns="http://www.w3.org/2000/svg">
<g clip-path="url(#clip0)">
<path d="M17.4582 6.6738L10.7586 4.8774L9.58587 0.502503C9.48777 0.137103 9.09537 -0.0752969 8.71017 0.0264031L0.54177 2.2152C0.15657 2.3178 -0.0756296 2.6994 0.0224704 3.0648L2.92947 13.9107C3.02757 14.2761 3.41907 14.4894 3.80337 14.385L7.05507 13.5147L6.61227 15.1689C6.51417 15.5343 6.74637 15.9159 7.13157 16.0176L14.4306 17.9742C14.8158 18.0777 15.2064 17.8653 15.3054 17.4981L17.9784 7.5225C18.0756 7.1571 17.8434 6.7755 17.4582 6.6738ZM1.46967 3.2682L8.51667 1.3818L11.1249 11.118L4.07787 13.0044L1.46967 3.2682ZM14.1102 16.617L7.97757 14.9403L8.45997 13.1385L11.9709 12.1962C12.3561 12.0945 12.5901 11.7129 12.4911 11.3475L11.1339 6.2832L16.4862 7.7511L14.1102 16.617Z" fill="#ACACAC"/>
</g>
<defs>
<clipPath id="clip0">
<rect width="18" height="18" fill="white"/>
</clipPath>
</defs>
</svg>
