<svg width="30" height="30" viewBox="0 0 30 30" fill="none" xmlns="http://www.w3.org/2000/svg">
<path d="M11.0856 15.3567H20.3713L21.6982 10.7139H9.39746L11.0856 15.3567Z" fill="#FDC913"/>
<path d="M22.929 8.85742H5.28613V10.7146H7.42185L10.4694 19.0949C10.6659 19.6316 11.0222 20.0951 11.4902 20.423C11.9583 20.7509 12.5156 20.9274 13.0871 20.9289H21.0718V19.0717H13.0871C12.698 19.0717 12.347 18.8256 12.2142 18.4607L11.7611 17.2146H20.3717C21.1981 17.2146 21.9317 16.6593 22.1573 15.8672L23.8223 10.0414C23.8612 9.90313 23.8677 9.75778 23.8411 9.61665C23.8146 9.47553 23.7558 9.34245 23.6693 9.22782C23.5828 9.11318 23.471 9.0201 23.3426 8.95585C23.2141 8.8916 23.0726 8.85791 22.929 8.85742ZM20.3717 15.3574H11.086L9.39785 10.7146H21.6986L20.3717 15.3574Z" fill="#FDC913"/>
<path d="M13.179 24.6422C13.9482 24.6422 14.5718 24.0186 14.5718 23.2493C14.5718 22.48 13.9482 21.8564 13.179 21.8564C12.4097 21.8564 11.7861 22.48 11.7861 23.2493C11.7861 24.0186 12.4097 24.6422 13.179 24.6422Z" fill="#FDC913"/>
<path d="M18.7503 24.6422C19.5195 24.6422 20.1431 24.0186 20.1431 23.2493C20.1431 22.48 19.5195 21.8564 18.7503 21.8564C17.981 21.8564 17.3574 22.48 17.3574 23.2493C17.3574 24.0186 17.981 24.6422 18.7503 24.6422Z" fill="#FDC913"/>
<circle cx="15" cy="15" r="14.5" stroke="#FDC913"/>
</svg>
