<svg width="17" height="17" viewBox="0 0 17 17" fill="none" xmlns="http://www.w3.org/2000/svg">
<path d="M11.5239 0.122724C10.4267 0.122724 9.40411 0.567339 8.5613 1.40949C7.60407 2.36672 7.16599 3.54365 7.29415 4.80165C7.39026 5.73534 7.81657 6.67688 8.49984 7.51903L3.75945 12.2594L2.90095 11.4009C2.48249 10.9805 2.1353 11.329 1.71619 11.7488L1.30753 12.1777C0.887762 12.5955 0.541224 12.9231 0.960339 13.3422L1.81753 14.2013L1.14407 14.8748C1.04433 14.9739 0.965181 15.0917 0.911166 15.2214C0.857152 15.3512 0.829344 15.4904 0.829344 15.631C0.829344 15.7715 0.857152 15.9107 0.911166 16.0405C0.965181 16.1703 1.04433 16.2881 1.14407 16.3871C1.56253 16.805 2.23665 16.805 2.65642 16.3871L10.0939 8.94965C10.8995 9.45442 11.7743 9.72576 12.6269 9.72576C13.7234 9.72576 14.748 9.28115 15.5901 8.43834C16.548 7.48176 16.9855 6.30484 16.8566 5.04684C16.7416 3.91503 16.1407 2.77603 15.1815 1.81815C14.0948 0.730147 12.7969 0.12207 11.5239 0.12207V0.122724ZM11.5651 1.47095C12.4759 1.47095 13.422 1.93715 14.2413 2.75838C14.9696 3.48415 15.4241 4.32892 15.5084 5.14884C15.5954 6.00145 15.2953 6.81353 14.6296 7.47849C14.0333 8.07349 13.3383 8.37688 12.5864 8.37688C11.6749 8.37688 10.7308 7.91003 9.90953 7.09011C9.1818 6.36238 8.72738 5.51957 8.64303 4.69965C8.55672 3.84703 8.85553 3.03561 9.5218 2.36999C10.1181 1.77499 10.8131 1.47095 11.5644 1.47095H11.5651Z" fill="#ACACAC"/>
</svg>
