<svg width="26" height="25" viewBox="0 0 26 25" fill="none" xmlns="http://www.w3.org/2000/svg">
<g filter="url(#filter0_d)">
<path d="M21.4182 5.98618L16.0222 5.21059L13.61 0.374144C13.5441 0.241725 13.4357 0.134529 13.3018 0.0693701C12.966 -0.0945772 12.558 0.0420455 12.3901 0.374144L9.97791 5.21059L4.58186 5.98618C4.4331 6.0072 4.29708 6.07656 4.19294 6.18166C4.06704 6.30964 3.99767 6.48181 4.00006 6.66035C4.00245 6.83889 4.07641 7.00918 4.20569 7.13381L8.10981 10.8983L7.18744 16.214C7.16581 16.3376 7.17965 16.4648 7.22738 16.5811C7.27511 16.6973 7.35483 16.7981 7.45749 16.8718C7.56016 16.9456 7.68166 16.9894 7.80823 16.9983C7.9348 17.0072 8.06136 16.9809 8.17356 16.9223L13 14.4127L17.8265 16.9223C17.9583 16.9917 18.1113 17.0148 18.258 16.9896C18.6277 16.9265 18.8764 16.5797 18.8126 16.214L17.8903 10.8983L21.7944 7.13381C21.9007 7.03082 21.9708 6.8963 21.992 6.74917C22.0494 6.38134 21.7901 6.04083 21.4182 5.98618ZM16.2474 10.3686L17.0147 14.7889L13 12.7038L8.98542 14.791L9.75264 10.3707L6.50523 7.23891L10.9938 6.59363L13 2.57272L15.0063 6.59363L19.4949 7.23891L16.2474 10.3686Z" fill="#ACACAC"/>
</g>
<defs>
<filter id="filter0_d" x="0" y="0" width="26" height="25" filterUnits="userSpaceOnUse" color-interpolation-filters="sRGB">
<feFlood flood-opacity="0" result="BackgroundImageFix"/>
<feColorMatrix in="SourceAlpha" type="matrix" values="0 0 0 0 0 0 0 0 0 0 0 0 0 0 0 0 0 0 127 0"/>
<feOffset dy="4"/>
<feGaussianBlur stdDeviation="2"/>
<feColorMatrix type="matrix" values="0 0 0 0 0 0 0 0 0 0 0 0 0 0 0 0 0 0 0.25 0"/>
<feBlend mode="normal" in2="BackgroundImageFix" result="effect1_dropShadow"/>
<feBlend mode="normal" in="SourceGraphic" in2="effect1_dropShadow" result="shape"/>
</filter>
</defs>
</svg>
