<svg width="30" height="30" viewBox="0 0 30 30" fill="none" xmlns="http://www.w3.org/2000/svg">
<path d="M14.8396 10.3324L15.2417 10.8778L15.6442 10.3328C18.9074 5.91476 25 8.34887 25 13.0911C25 13.9005 24.5065 14.9111 23.6281 16.0384C22.7646 17.1467 21.5931 18.2878 20.3771 19.3458C19.1638 20.4015 17.9203 21.3622 16.921 22.1115C16.562 22.3806 16.2364 22.6211 15.954 22.8297C15.8427 22.9118 15.7382 22.989 15.6411 23.061C15.4921 23.1714 15.3561 23.2727 15.2393 23.3617C15.1167 23.2708 14.9734 23.1676 14.8169 23.0559C14.6765 22.9556 14.5227 22.8465 14.3561 22.7283C14.095 22.5431 13.8026 22.3356 13.4816 22.1053C12.4366 21.3555 11.1324 20.3943 9.85812 19.3381C8.58105 18.2795 7.34917 17.1377 6.44072 16.0289C5.51514 14.8991 5 13.8919 5 13.0911C5 8.34794 11.5599 5.8837 14.8396 10.3324Z" fill="#FDC913" stroke="#FDC913"/>
<circle cx="15" cy="15" r="14.5" stroke="#FDC913"/>
</svg>
