<svg width="19" height="19" viewBox="0 0 19 19" fill="none" xmlns="http://www.w3.org/2000/svg">
<path d="M14.2498 14.6462C14.9069 14.6462 15.4373 14.1157 15.4373 13.4587C15.4373 12.8016 14.9069 12.2712 14.2498 12.2712C13.5928 12.2712 13.0623 12.8016 13.0623 13.4587C13.0623 14.1157 13.5928 14.6462 14.2498 14.6462ZM15.4373 7.52116H13.4582V9.50033H16.989L15.4373 7.52116ZM4.74984 14.6462C5.40692 14.6462 5.93734 14.1157 5.93734 13.4587C5.93734 12.8016 5.40692 12.2712 4.74984 12.2712C4.09275 12.2712 3.56234 12.8016 3.56234 13.4587C3.56234 14.1157 4.09275 14.6462 4.74984 14.6462ZM15.8332 6.33366L18.2082 9.50033V13.4587H16.6248C16.6248 14.7728 15.564 15.8337 14.2498 15.8337C12.9357 15.8337 11.8748 14.7728 11.8748 13.4587H7.12484C7.12484 14.7728 6.064 15.8337 4.74984 15.8337C3.43567 15.8337 2.37484 14.7728 2.37484 13.4587H0.791504V4.75033C0.791504 3.87158 1.49609 3.16699 2.37484 3.16699H13.4582V6.33366H15.8332ZM2.37484 4.75033V11.8753H2.9765C3.41192 11.3924 4.04525 11.0837 4.74984 11.0837C5.45442 11.0837 6.08775 11.3924 6.52317 11.8753H11.8748V4.75033H2.37484ZM7.9165 5.54199L10.6873 8.31283L7.9165 11.0837V9.10449H3.95817V7.52116H7.9165V5.54199Z" fill="#ACACAC"/>
</svg>
