<svg width="20" height="20" viewBox="0 0 20 20" fill="none" xmlns="http://www.w3.org/2000/svg">
<path d="M12.5002 3.33366H5.00016V16.667H15.0002V5.83366H12.5002V3.33366ZM5.00016 1.66699H13.3335L16.6668 5.00033V16.667C16.6668 17.109 16.4912 17.5329 16.1787 17.8455C15.8661 18.1581 15.4422 18.3337 15.0002 18.3337H5.00016C4.55814 18.3337 4.13421 18.1581 3.82165 17.8455C3.50909 17.5329 3.3335 17.109 3.3335 16.667V3.33366C3.3335 2.89163 3.50909 2.46771 3.82165 2.15515C4.13421 1.84259 4.55814 1.66699 5.00016 1.66699ZM6.66683 9.16699H13.3335V10.8337H6.66683V9.16699ZM6.66683 12.5003H13.3335V14.167H6.66683V12.5003Z" fill="#ACACAC"/>
</svg>
