<svg width="24" height="25" viewBox="0 0 24 25" fill="none" xmlns="http://www.w3.org/2000/svg">
<path d="M11.9896 5.99219C12.2651 5.99219 12.5379 6.04735 12.7925 6.15454C13.0471 6.26172 13.2784 6.41882 13.4732 6.61687C13.668 6.81492 13.8226 7.05004 13.928 7.30881C14.0335 7.56757 14.0877 7.84492 14.0877 8.125C14.0877 8.40509 14.0335 8.68243 13.928 8.94119C13.8226 9.19996 13.668 9.43508 13.4732 9.63313C13.2784 9.83118 13.0471 9.98828 12.7925 10.0955C12.5379 10.2026 12.2651 10.2578 11.9896 10.2578C11.4331 10.2578 10.8994 10.0331 10.5059 9.63313C10.1125 9.23315 9.89141 8.69066 9.89141 8.125C9.89141 7.55934 10.1125 7.01685 10.5059 6.61687C10.8994 6.21689 11.4331 5.99219 11.9896 5.99219ZM11.9896 15.1328C14.957 15.1328 18.0842 16.6156 18.0842 17.2656V18.3828H5.89492V17.2656C5.89492 16.6156 9.02217 15.1328 11.9896 15.1328ZM11.9896 4.0625C9.78151 4.0625 7.99308 5.88047 7.99308 8.125C7.99308 10.3695 9.78151 12.1875 11.9896 12.1875C14.1976 12.1875 15.9861 10.3695 15.9861 8.125C15.9861 5.88047 14.1976 4.0625 11.9896 4.0625ZM11.9896 13.2031C9.32191 13.2031 3.99658 14.5641 3.99658 17.2656V20.3125H19.9826V17.2656C19.9826 14.5641 14.6572 13.2031 11.9896 13.2031Z" fill="#FDC913"/>
</svg>
