<svg width="20" height="21" viewBox="0 0 20 21" fill="none" xmlns="http://www.w3.org/2000/svg">
<path d="M15.8332 3.38853H14.1665V2.54143C14.1665 2.31677 14.0787 2.10131 13.9224 1.94244C13.7661 1.78358 13.5542 1.69434 13.3332 1.69434C13.1122 1.69434 12.9002 1.78358 12.7439 1.94244C12.5876 2.10131 12.4998 2.31677 12.4998 2.54143V3.38853H7.49984V2.54143C7.49984 2.31677 7.41204 2.10131 7.25576 1.94244C7.09948 1.78358 6.88752 1.69434 6.6665 1.69434C6.44549 1.69434 6.23353 1.78358 6.07725 1.94244C5.92097 2.10131 5.83317 2.31677 5.83317 2.54143V3.38853H4.1665C3.50346 3.38853 2.86758 3.65627 2.39874 4.13286C1.9299 4.60944 1.6665 5.25583 1.6665 5.92982V16.095C1.6665 16.769 1.9299 17.4154 2.39874 17.8919C2.86758 18.3685 3.50346 18.6363 4.1665 18.6363H15.8332C16.4962 18.6363 17.1321 18.3685 17.6009 17.8919C18.0698 17.4154 18.3332 16.769 18.3332 16.095V5.92982C18.3332 5.25583 18.0698 4.60944 17.6009 4.13286C17.1321 3.65627 16.4962 3.38853 15.8332 3.38853ZM16.6665 16.095C16.6665 16.3196 16.5787 16.5351 16.4224 16.694C16.2661 16.8528 16.0542 16.9421 15.8332 16.9421H4.1665C3.94549 16.9421 3.73353 16.8528 3.57725 16.694C3.42097 16.5351 3.33317 16.3196 3.33317 16.095V10.1653H16.6665V16.095ZM16.6665 8.47111H3.33317V5.92982C3.33317 5.70515 3.42097 5.48969 3.57725 5.33083C3.73353 5.17197 3.94549 5.08272 4.1665 5.08272H5.83317V5.92982C5.83317 6.15448 5.92097 6.36995 6.07725 6.52881C6.23353 6.68767 6.44549 6.77692 6.6665 6.77692C6.88752 6.77692 7.09948 6.68767 7.25576 6.52881C7.41204 6.36995 7.49984 6.15448 7.49984 5.92982V5.08272H12.4998V5.92982C12.4998 6.15448 12.5876 6.36995 12.7439 6.52881C12.9002 6.68767 13.1122 6.77692 13.3332 6.77692C13.5542 6.77692 13.7661 6.68767 13.9224 6.52881C14.0787 6.36995 14.1665 6.15448 14.1665 5.92982V5.08272H15.8332C16.0542 5.08272 16.2661 5.17197 16.4224 5.33083C16.5787 5.48969 16.6665 5.70515 16.6665 5.92982V8.47111Z" fill="#FDC913"/>
</svg>
